Coordinates
version=1
nRows=19
nColumns=24
inDegrees=yes

Units are S.I. units (second, meters, Newtons, ...)
Angles are in degrees.

endheader
time	pelvis_tilt	pelvis_list	pelvis_rotation	pelvis_tx	pelvis_ty	pelvis_tz	hip_flexion_r	hip_adduction_r	hip_rotation_r	knee_angle_r	ankle_angle_r	subtalar_angle_r	mtp_angle_r	hip_flexion_l	hip_adduction_l	hip_rotation_l	knee_angle_l	ankle_angle_l	subtalar_angle_l	mtp_angle_l	lumbar_extension	lumbar_bending	lumbar_rotation
      0.83733333	     -1.25633406	     -2.53923084	      0.18833168	     -0.18874133	      1.04285216	      0.29854206	    -10.33020356	      5.22813254	     -1.09854207	    -11.43810528	     21.19612096	      0.35994258	      1.26819992	     27.60323640	     -3.29335286	      0.03468223	     -8.24299153	      7.30847726	      8.67491779	      2.87326420	    -11.17761129	      6.18319691	      3.30170727
      0.84150000	     -1.24011535	     -2.49826396	      0.16611207	     -0.18291342	      1.04194625	      0.29815661	    -10.49631001	      5.14485795	     -1.17132741	    -11.87318387	     21.39896760	      0.51406287	      1.24457134	     27.68128932	     -3.14916840	      0.26501596	     -8.75938619	      7.17297412	      8.52464765	      2.92571216	    -11.12890845	      6.07995415	      3.28408760
      0.84566667	     -1.21753820	     -2.44170713	      0.13477725	     -0.17706510	      1.04109837	      0.29778700	    -10.65748999	      5.04196424	     -1.23357041	    -12.33546098	     21.59435561	      0.67541437	      1.23416521	     27.74857877	     -2.99333368	      0.49741980	     -9.32805313	      7.00801694	      8.35614637	      2.98311151	    -11.09269556	      5.94622121	      3.26743199
      0.84983333	     -1.22217391	     -2.38955946	      0.09766677	     -0.17119517	      1.04024033	      0.29741801	    -10.77593455	      4.94287160	     -1.27354115	    -12.82827009	     21.75839167	      0.80569371	      1.23775013	     27.85158381	     -2.84472884	      0.73564993	     -9.96019193	      6.82163309	      8.18264712	      3.03976065	    -11.02320194	      5.80993024	      3.25677146
      0.85400000	     -1.20463431	     -2.32497307	      0.06097580	     -0.16529158	      1.03947343	      0.29703373	    -10.90922593	      4.82539190	     -1.34091442	    -13.34070781	     21.88810036	      0.97098695	      1.25793669	     27.92984134	     -2.68416251	      0.96092817	    -10.63858636	      6.58910852	      7.96066102	      3.10726590	    -10.96981071	      5.66802076	      3.25028295
      0.85816667	     -1.20900203	     -2.25635430	      0.01354959	     -0.15936430	      1.03872278	      0.29665340	    -11.00242557	      4.70019631	     -1.38627412	    -13.88967039	     21.99815097	      1.11465198	      1.29423995	     28.02983773	     -2.52398364	      1.18585463	    -11.35547604	      6.34426909	      7.73855199	      3.16917392	    -10.89361486	      5.50756389	      3.24682033
      0.86233333	     -1.22540500	     -2.18959700	     -0.03549328	     -0.15341110	      1.03799246	      0.29627117	    -11.06978312	      4.57504684	     -1.42959003	    -14.46658613	     22.06422179	      1.25274387	      1.34516824	     28.14973928	     -2.36845709	      1.40703737	    -12.12196078	      6.07863695	      7.49584944	      3.22385052	    -10.79255162	      5.35145070	      3.24796574
      0.86650000	     -1.23916860	     -2.11774550	     -0.08644026	     -0.14743562	      1.03732942	      0.29586476	    -11.12431648	      4.43733103	     -1.49256495	    -15.07396682	     22.10108961	      1.42469030	      1.42213197	     28.26494454	     -2.20835206	      1.62358530	    -12.91475921	      5.79296782	      7.20969072	      3.27935285	    -10.69906122	      5.19341085	      3.25589081
      0.87066667	     -1.26668399	     -2.05154926	     -0.14218869	     -0.14144018	      1.03668680	      0.29545659	    -11.14698797	      4.30284100	     -1.54297665	    -15.71666639	     22.09170214	      1.57723787	      1.51539667	     28.39791739	     -2.05886991	      1.83451483	    -13.73899616	      5.51035295	      6.93234585	      3.32523052	    -10.58806496	      5.03826338	      3.26391811
      0.87483333	     -1.27969579	     -1.96632715	     -0.20811295	     -0.13541977	      1.03614529	      0.29505005	    -11.16585798	      4.13940853	     -1.60807720	    -16.39837902	     22.05356215	      1.76653085	      1.63908019	     28.50251940	     -1.89695185	      2.02902928	    -14.56260125	      5.21330711	      6.61513056	      3.36497980	    -10.48679953	      4.85604247	      3.27844230
      0.87900000	     -1.28642136	     -1.89161965	     -0.25934826	     -0.12937243	      1.03565108	      0.29458017	    -11.17854321	      3.98100785	     -1.70822449	    -17.10418731	     21.98065050	      1.98613792	      1.85309385	     28.60716717	     -1.73936343	      2.22442472	    -15.41539057	      4.92448487	      6.27037338	      3.41072828	    -10.38241512	      4.69576726	      3.29685285
      0.88316667	     -1.28256223	     -1.80904530	     -0.32015629	     -0.12335201	      1.03523907	      0.29409939	    -11.16536854	      3.80297818	     -1.83030142	    -17.88264018	     21.87059020	      2.24277391	      2.31259614	     28.68426041	     -1.57577901	      2.44773434	    -16.24568870	      4.64924879	      5.89896013	      3.46807826	    -10.31985409	      4.52881656	      3.32105472
      0.88733333	     -1.33331585	     -1.72523901	     -0.41781015	     -0.11725057	      1.03482291	      0.29371487	    -11.08245796	      3.62456629	     -1.85036586	    -18.67906452	     21.65683070	      2.37882436	      2.48513751	     28.82132571	     -1.44634890	      2.52898223	    -17.10738991	      4.41426452	      5.67342183	      3.47273248	    -10.15665980	      4.32949833	      3.33551124
      0.89150000	     -1.33103198	     -1.62776383	     -0.49383306	     -0.11116686	      1.03455690	      0.29323243	    -11.02915217	      3.41680373	     -1.96070992	    -19.52048042	     21.38076281	      2.54636376	      5.77850422	     28.87227766	     -1.27932863	      2.71670633	    -17.91298121	      4.16207911	      5.24279382	      3.41929697	    -10.06854047	      4.14189698	      3.31863318
      0.89566667	     -1.33592974	     -1.55193406	     -0.57404202	     -0.10506894	      1.03431983	      0.29274855	    -10.94021936	      3.22279998	     -2.09089087	    -20.41649836	     21.08625849	      2.84261824	      5.83601832	     28.95019980	     -1.15516576	      2.77946764	    -18.76585937	      4.00616264	      5.07829512	      3.40611607	     -9.97146652	      3.97187844	      3.39339979
      0.89983333	     -1.33700314	     -1.45523932	     -0.66138347	     -0.09897442	      1.03416580	      0.29224448	    -10.81667422	      2.99362827	     -2.24812889	    -21.38674709	     20.82109247	      3.14709245	      5.97251987	     28.99197369	     -1.00743806	      2.87136775	    -19.56160590	      3.83243587	      4.79428460	      3.37245766	     -9.88158226	      3.78435042	      3.44708376
      0.90400000	     -1.31731693	     -1.35140485	     -0.75069610	     -0.09287132	      1.03413075	      0.29172407	    -10.69660174	      2.74727048	     -2.40315023	    -22.37460078	     20.38045210	      3.40903334	      8.53649760	     28.98311191	     -0.85040861	      2.98121823	    -20.30890868	      3.69136557	      4.46209080	      2.77781546	     -9.81812345	      3.59201550	      3.46142037
      0.90816667	     -1.30598237	     -1.25786064	     -0.84356992	     -0.08674777	      1.03412460	      0.29123023	    -10.53849582	      2.50791359	     -2.55248402	    -23.41972146	     19.93459827	      3.71771596	      8.59049322	     28.98156780	     -0.72320250	      2.99382030	    -21.05793510	      3.63356627	      4.32354828	      2.76438347	     -9.73592341	      3.37942319	      3.50436958
      0.91233333	     -1.28779155	     -1.14532823	     -0.94102977	     -0.08063966	      1.03421096	      0.29070769	    -10.34608650	      2.23028267	     -2.74364912	    -24.53726038	     19.47139138	      4.08395802	      8.70382462	     28.93869502	     -0.57333889	      3.02295372	    -21.74177492	      3.57395976	      4.11772523	      2.73643272	     -9.66573140	      3.16566996	      3.55303416
